{
  "accessors": [
    {
      "bufferView": 2,
      "componentType": 5126,
      "count": 253,
      "max": [
        0.22907373309135437,
        0.22907428443431854,
        0.29590049386024475
      ],
      "min": [
        -0.229074627161026,
        -0.22907434403896332,
        -0.14269496500492096
      ],
      "type": "VEC3"
    },
    {
      "bufferView": 2,
      "byteOffset": 3036,
      "componentType": 5126,
      "count": 253,
      "max": [
        1.0,
        1.0,
        1.0
      ],
      "min": [
        -1.0,
        -1.0,
        -0.9818395972251892
      ],
      "type": "VEC3"
    },
    {
      "bufferView": 3,
      "componentType": 5126,
      "count": 253,
      "max": [
        0.9598532915115356,
        0.9999386072158813,
        0.9562138915061951,
        1.0
      ],
      "min": [
        -0.9122557640075684,
        -0.5555870532989502,
        -0.9999516606330872,
        1.0
      ],
      "type": "VEC4"
    },
    {
      "bufferView": 1,
      "componentType": 5126,
      "count": 253,
      "max": [
        0.9890604019165039,
        0.9612194299697876
      ],
      "min": [
        0.33334341645240784,
        0.016413386911153793
      ],
      "type": "VEC2"
    },
    {
      "bufferView": 0,
      "componentType": 5125,
      "count": 948,
      "type": "SCALAR"
    },
    {
      "bufferView": 2,
      "byteOffset": 6072,
      "componentType": 5126,
      "count": 309,
      "max": [
        0.20509125292301178,
        0.20422899723052979,
        0.19431672990322113
      ],
      "min": [
        -0.2053605169057846,
        -0.20422907173633575,
        -0.09453019499778748
      ],
      "type": "VEC3"
    },
    {
      "bufferView": 2,
      "byteOffset": 9780,
      "componentType": 5126,
      "count": 309,
      "max": [
        0.9953411221504211,
        0.9953463673591614,
        0.9996403455734253
      ],
      "min": [
        -0.9951028823852539,
        -0.9936482906341553,
        -1.0
      ],
      "type": "VEC3"
    },
    {
      "bufferView": 1,
      "byteOffset": 2024,
      "componentType": 5126,
      "count": 309,
      "max": [
        0.5353235006332397,
        0.9998795390129089
      ],
      "min": [
        0.003936930559575558,
        0.00011352141882525757
      ],
      "type": "VEC2"
    },
    {
      "bufferView": 0,
      "byteOffset": 3792,
      "componentType": 5125,
      "count": 1248,
      "type": "SCALAR"
    },
    {
      "bufferView": 2,
      "byteOffset": 13488,
      "componentType": 5126,
      "count": 1506,
      "max": [
        0.2727598249912262,
        0.24984398484230042,
        1.4462534189224243
      ],
      "min": [
        -0.2727598249912262,
        -0.24869899451732635,
        0.013154967688024044
      ],
      "type": "VEC3"
    },
    {
      "bufferView": 2,
      "byteOffset": 31560,
      "componentType": 5126,
      "count": 1506,
      "max": [
        0.9997679591178894,
        0.9999179840087891,
        0.9939260482788086
      ],
      "min": [
        -0.9997527003288269,
        -0.9999169111251831,
        -1.0
      ],
      "type": "VEC3"
    },
    {
      "bufferView": 3,
      "byteOffset": 4048,
      "componentType": 5126,
      "count": 1506,
      "max": [
        0.9999728202819824,
        1.0,
        0.9998858571052551,
        1.0
      ],
      "min": [
        -0.996922492980957,
        -0.9992409348487854,
        -0.9954814910888672,
        -1.0
      ],
      "type": "VEC4"
    },
    {
      "bufferView": 1,
      "byteOffset": 4496,
      "componentType": 5126,
      "count": 1506,
      "max": [
        0.5509235858917236,
        0.99025559425354
      ],
      "min": [
        0.010650727897882462,
        0.016672397032380104
      ],
      "type": "VEC2"
    },
    {
      "bufferView": 0,
      "byteOffset": 8784,
      "componentType": 5125,
      "count": 5562,
      "type": "SCALAR"
    },
    {
      "bufferView": 2,
      "byteOffset": 49632,
      "componentType": 5126,
      "count": 80,
      "max": [
        0.23263101279735565,
        0.21261124312877655,
        0.24828380346298218
      ],
      "min": [
        -0.23263101279735565,
        -0.21261122822761536,
        -0.24828363955020905
      ],
      "type": "VEC3"
    },
    {
      "bufferView": 2,
      "byteOffset": 50592,
      "componentType": 5126,
      "count": 80,
      "max": [
        0.999994158744812,
        0.9999988079071045,
        0.0036641103215515614
      ],
      "min": [
        -0.999994158744812,
        -0.9999988079071045,
        0.0015984736382961273
      ],
      "type": "VEC3"
    },
    {
      "bufferView": 3,
      "byteOffset": 28144,
      "componentType": 5126,
      "count": 80,
      "max": [
        0.0034077786840498447,
        0.24278080463409424,
        0.999994158744812,
        1.0
      ],
      "min": [
        -0.004301659297198057,
        -0.05551118776202202,
        -0.9999987483024597,
        -1.0
      ],
      "type": "VEC4"
    },
    {
      "bufferView": 1,
      "byteOffset": 16544,
      "componentType": 5126,
      "count": 80,
      "max": [
        0.7728076577186584,
        0.8587492108345032
      ],
      "min": [
        9.802204294828698e-05,
        9.802204294828698e-05
      ],
      "type": "VEC2"
    },
    {
      "bufferView": 1,
      "byteOffset": 17184,
      "componentType": 5126,
      "count": 80,
      "max": [
        0.7728076577186584,
        0.8587492108345032
      ],
      "min": [
        9.802204294828698e-05,
        9.802204294828698e-05
      ],
      "type": "VEC2"
    },
    {
      "bufferView": 0,
      "byteOffset": 31032,
      "componentType": 5125,
      "count": 192,
      "type": "SCALAR"
    },
    {
      "bufferView": 2,
      "byteOffset": 51552,
      "componentType": 5126,
      "count": 269,
      "max": [
        0.19975052773952484,
        0.18368671834468842,
        0.7948392033576965
      ],
      "min": [
        -0.2001216560602188,
        -0.1819855123758316,
        0.1184796392917633
      ],
      "type": "VEC3"
    },
    {
      "bufferView": 2,
      "byteOffset": 54780,
      "componentType": 5126,
      "count": 269,
      "max": [
        0.999992847442627,
        0.9999971389770508,
        0.9997843503952026
      ],
      "min": [
        -1.0,
        -0.9999961256980896,
        -1.0
      ],
      "type": "VEC3"
    },
    {
      "bufferView": 1,
      "byteOffset": 17824,
      "componentType": 5126,
      "count": 269,
      "max": [
        0.9819091558456421,
        0.948051929473877
      ],
      "min": [
        0.5737612843513489,
        0.383979469537735
      ],
      "type": "VEC2"
    },
    {
      "bufferView": 0,
      "byteOffset": 31800,
      "componentType": 5125,
      "count": 864,
      "type": "SCALAR"
    },
    {
      "bufferView": 2,
      "byteOffset": 58008,
      "componentType": 5126,
      "count": 270,
      "max": [
        0.11902020126581192,
        0.11902011930942535,
        1.5007381439208984
      ],
      "min": [
        -0.1190202608704567,
        -0.11902035772800446,
        1.1596522331237793
      ],
      "type": "VEC3"
    },
    {
      "bufferView": 2,
      "byteOffset": 61248,
      "componentType": 5126,
      "count": 270,
      "max": [
        1.0,
        1.0,
        1.0
      ],
      "min": [
        -1.0,
        -1.0,
        -1.0
      ],
      "type": "VEC3"
    },
    {
      "bufferView": 3,
      "byteOffset": 29424,
      "componentType": 5126,
      "count": 270,
      "max": [
        0.9903910756111145,
        0.9950245022773743,
        0.6794837713241577,
        1.0
      ],
      "min": [
        -0.9659273624420166,
        -0.9984906315803528,
        -0.9999140501022339,
        1.0
      ],
      "type": "VEC4"
    },
    {
      "bufferView": 1,
      "byteOffset": 19976,
      "componentType": 5126,
      "count": 270,
      "max": [
        0.9997963309288025,
        0.9385452270507813
      ],
      "min": [
        0.00020371658320073038,
        0.00020371658320073038
      ],
      "type": "VEC2"
    },
    {
      "bufferView": 0,
      "byteOffset": 35256,
      "componentType": 5125,
      "count": 924,
      "type": "SCALAR"
    }
  ],
  "asset": {
    "extras": {
      "author": "landout (https://sketchfab.com/landout)",
      "license": "CC-BY-4.0 (http://creativecommons.org/licenses/by/4.0/)",
      "source": "https://sketchfab.com/3d-models/whiskey-7d07e67d17274011a16418d1bd05e6eb",
      "title": "whiskey"
    },
    "generator": "Sketchfab-12.82.3",
    "version": "2.0"
  },
  "bufferViews": [
    {
      "buffer": 0,
      "byteLength": 38952,
      "name": "floatBufferViews",
      "target": 34963
    },
    {
      "buffer": 0,
      "byteLength": 22136,
      "byteOffset": 38952,
      "byteStride": 8,
      "name": "floatBufferViews",
      "target": 34962
    },
    {
      "buffer": 0,
      "byteLength": 64488,
      "byteOffset": 61088,
      "byteStride": 12,
      "name": "floatBufferViews",
      "target": 34962
    },
    {
      "buffer": 0,
      "byteLength": 33744,
      "byteOffset": 125576,
      "byteStride": 16,
      "name": "floatBufferViews",
      "target": 34962
    }
  ],
  "buffers": [
    {
      "byteLength": 159320,
      "uri": "scene.bin"
    }
  ],
  "extensionsUsed": [
    "KHR_materials_transmission"
  ],
  "images": [
    {
      "uri": "textures/glass_baseColor.png"
    },
    {
      "uri": "textures/glass_metallicRoughness.png"
    },
    {
      "uri": "textures/glass_normal.png"
    },
    {
      "uri": "textures/whiskey_baseColor.png"
    },
    {
      "uri": "textures/whiskey_metallicRoughness.png"
    },
    {
      "uri": "textures/whiskey_transmission.png"
    },
    {
      "uri": "textures/paper_baseColor.png"
    },
    {
      "uri": "textures/paper_metallicRoughness.png"
    },
    {
      "uri": "textures/paper_normal.png"
    },
    {
      "uri": "textures/viko_baseColor.png"
    },
    {
      "uri": "textures/viko_metallicRoughness.png"
    },
    {
      "uri": "textures/viko_normal.png"
    }
  ],
  "materials": [
    {
      "alphaMode": "BLEND",
      "doubleSided": true,
      "name": "glass",
      "normalTexture": {
        "index": 2
      },
      "pbrMetallicRoughness": {
        "baseColorFactor": [
          1.0,
          1.0,
          1.0,
          0.254476966
        ],
        "baseColorTexture": {
          "index": 0
        },
        "metallicRoughnessTexture": {
          "index": 1
        }
      }
    },
    {
      "alphaMode": "BLEND",
      "doubleSided": true,
      "extensions": {
        "KHR_materials_transmission": {
          "transmissionFactor": 1.0,
          "transmissionTexture": {
            "index": 5
          }
        }
      },
      "name": "whiskey",
      "pbrMetallicRoughness": {
        "baseColorFactor": [
          1.0,
          0.5338469159,
          0.1717234472,
          1.0
        ],
        "baseColorTexture": {
          "index": 3
        },
        "metallicRoughnessTexture": {
          "index": 4
        }
      }
    },
    {
      "doubleSided": true,
      "name": "paper",
      "normalTexture": {
        "index": 8
      },
      "pbrMetallicRoughness": {
        "baseColorTexture": {
          "index": 6
        },
        "metallicRoughnessTexture": {
          "index": 7
        }
      }
    },
    {
      "doubleSided": true,
      "name": "viko",
      "normalTexture": {
        "index": 11
      },
      "pbrMetallicRoughness": {
        "baseColorTexture": {
          "index": 9
        },
        "metallicFactor": 0.6140971096292864,
        "metallicRoughnessTexture": {
          "index": 10
        },
        "roughnessFactor": 0.7299069863831965
      }
    }
  ],
  "meshes": [
    {
      "name": "Cylinder_glass_0",
      "primitives": [
        {
          "attributes": {
            "NORMAL": 1,
            "POSITION": 0,
            "TANGENT": 2,
            "TEXCOORD_0": 3
          },
          "indices": 4,
          "material": 0,
          "mode": 4
        }
      ]
    },
    {
      "name": "Cylinder.001_whiskey_0",
      "primitives": [
        {
          "attributes": {
            "NORMAL": 6,
            "POSITION": 5,
            "TEXCOORD_0": 7
          },
          "indices": 8,
          "material": 1,
          "mode": 4
        }
      ]
    },
    {
      "name": "Cube.002_glass_0",
      "primitives": [
        {
          "attributes": {
            "NORMAL": 10,
            "POSITION": 9,
            "TANGENT": 11,
            "TEXCOORD_0": 12
          },
          "indices": 13,
          "material": 0,
          "mode": 4
        }
      ]
    },
    {
      "name": "Cube.000_paper_0",
      "primitives": [
        {
          "attributes": {
            "NORMAL": 15,
            "POSITION": 14,
            "TANGENT": 16,
            "TEXCOORD_0": 17,
            "TEXCOORD_1": 18
          },
          "indices": 19,
          "material": 2,
          "mode": 4
        }
      ]
    },
    {
      "name": "Cube.003_whiskey_0",
      "primitives": [
        {
          "attributes": {
            "NORMAL": 21,
            "POSITION": 20,
            "TEXCOORD_0": 22
          },
          "indices": 23,
          "material": 1,
          "mode": 4
        }
      ]
    },
    {
      "name": "Cylinder.002_viko_0",
      "primitives": [
        {
          "attributes": {
            "NORMAL": 25,
            "POSITION": 24,
            "TANGENT": 26,
            "TEXCOORD_0": 27
          },
          "indices": 28,
          "material": 3,
          "mode": 4
        }
      ]
    }
  ],
  "nodes": [
    {
      "children": [
        1
      ],
      "matrix": [
        1.0,
        0.0,
        0.0,
        0.0,
        0.0,
        2.220446049250313e-16,
        -1.0,
        0.0,
        0.0,
        1.0,
        2.220446049250313e-16,
        0.0,
        0.0,
        0.0,
        0.0,
        1.0
      ],
      "name": "Sketchfab_model"
    },
    {
      "children": [
        2
      ],
      "matrix": [
        0.009999999776482582,
        0.0,
        0.0,
        0.0,
        0.0,
        0.0,
        0.009999999776482582,
        0.0,
        0.0,
        -0.009999999776482582,
        0.0,
        0.0,
        0.0,
        0.0,
        0.0,
        1.0
      ],
      "name": "8b56f57c2fd444b09b3ea0b807b6440c.fbx"
    },
    {
      "children": [
        3,
        5,
        7,
        9,
        11,
        13
      ],
      "name": "RootNode"
    },
    {
      "children": [
        4
      ],
      "matrix": [
        100.0,
        0.0,
        0.0,
        0.0,
        0.0,
        -1.629206793918314e-05,
        -99.99999999999868,
        0.0,
        0.0,
        99.99999999999868,
        -1.629206793918314e-05,
        0.0,
        78.32233428955078,
        15.889713287353516,
        1.7009572275128448e-06,
        1.0
      ],
      "name": "Cylinder"
    },
    {
      "mesh": 0,
      "name": "Cylinder_glass_0"
    },
    {
      "children": [
        6
      ],
      "matrix": [
        100.0,
        0.0,
        0.0,
        0.0,
        0.0,
        -1.629206793918314e-05,
        -99.99999999999868,
        0.0,
        0.0,
        99.99999999999868,
        -1.629206793918314e-05,
        0.0,
        78.32234191894531,
        15.889713287353516,
        1.7009572275128448e-06,
        1.0
      ],
      "name": "Cylinder.001"
    },
    {
      "mesh": 1,
      "name": "Cylinder.001_whiskey_0"
    },
    {
      "children": [
        8
      ],
      "matrix": [
        100.0,
        0.0,
        0.0,
        0.0,
        0.0,
        -1.629206793918314e-05,
        -99.99999999999868,
        0.0,
        0.0,
        99.99999999999868,
        -1.629206793918314e-05,
        0.0,
        0.0,
        0.0,
        0.0,
        1.0
      ],
      "name": "Cube.002"
    },
    {
      "mesh": 2,
      "name": "Cube.002_glass_0"
    },
    {
      "children": [
        10
      ],
      "matrix": [
        100.0,
        0.0,
        0.0,
        0.0,
        0.0,
        -1.629206793918314e-05,
        -99.99999999999868,
        0.0,
        0.0,
        99.99999999999868,
        -1.629206793918314e-05,
        0.0,
        1.2439424779131514e-07,
        48.97219467163086,
        -0.05724765360355377,
        1.0
      ],
      "name": "Cube.000"
    },
    {
      "mesh": 3,
      "name": "Cube.000_paper_0"
    },
    {
      "children": [
        12
      ],
      "matrix": [
        100.0,
        0.0,
        0.0,
        0.0,
        0.0,
        -1.629206793918314e-05,
        -99.99999999999868,
        0.0,
        0.0,
        99.99999999999868,
        -1.629206793918314e-05,
        0.0,
        0.0,
        1.5904877185821533,
        0.0,
        1.0
      ],
      "name": "Cube.003"
    },
    {
      "mesh": 4,
      "name": "Cube.003_whiskey_0"
    },
    {
      "children": [
        14
      ],
      "matrix": [
        100.0,
        0.0,
        0.0,
        0.0,
        0.0,
        -1.629206793918314e-05,
        -99.99999999999868,
        0.0,
        0.0,
        99.99999999999868,
        -1.629206793918314e-05,
        0.0,
        0.0,
        0.0,
        0.0,
        1.0
      ],
      "name": "Cylinder.002"
    },
    {
      "mesh": 5,
      "name": "Cylinder.002_viko_0"
    }
  ],
  "samplers": [
    {
      "magFilter": 9729,
      "minFilter": 9987,
      "wrapS": 10497,
      "wrapT": 10497
    }
  ],
  "scene": 0,
  "scenes": [
    {
      "name": "Sketchfab_Scene",
      "nodes": [
        0
      ]
    }
  ],
  "textures": [
    {
      "sampler": 0,
      "source": 0
    },
    {
      "sampler": 0,
      "source": 1
    },
    {
      "sampler": 0,
      "source": 2
    },
    {
      "sampler": 0,
      "source": 3
    },
    {
      "sampler": 0,
      "source": 4
    },
    {
      "sampler": 0,
      "source": 5
    },
    {
      "sampler": 0,
      "source": 6
    },
    {
      "sampler": 0,
      "source": 7
    },
    {
      "sampler": 0,
      "source": 8
    },
    {
      "sampler": 0,
      "source": 9
    },
    {
      "sampler": 0,
      "source": 10
    },
    {
      "sampler": 0,
      "source": 11
    }
  ]
}
