{
  "accessors": [
    {
      "bufferView": 2,
      "componentType": 5126,
      "count": 273,
      "max": [
        0.8703500032424927,
        0.6562870144844055,
        4.207164764404297
      ],
      "min": [
        -0.8703500032424927,
        -0.6562870144844055,
        0.012027000077068806
      ],
      "type": "VEC3"
    },
    {
      "bufferView": 2,
      "byteOffset": 3276,
      "componentType": 5126,
      "count": 273,
      "max": [
        0.988609790802002,
        0.9985572695732117,
        1.0
      ],
      "min": [
        -0.988609790802002,
        -0.9985572695732117,
        -0.9924980998039246
      ],
      "type": "VEC3"
    },
    {
      "bufferView": 3,
      "componentType": 5126,
      "count": 273,
      "max": [
        0.9881800413131714,
        1.0,
        0.9994320273399353,
        1.0
      ],
      "min": [
        -1.0,
        -1.0,
        -0.9886115789413452,
        -1.0
      ],
      "type": "VEC4"
    },
    {
      "bufferView": 1,
      "componentType": 5126,
      "count": 273,
      "max": [
        0.9844419956207275,
        0.9944270253181458
      ],
      "min": [
        0.02251400053501129,
        0.05514499917626381
      ],
      "type": "VEC2"
    },
    {
      "bufferView": 0,
      "componentType": 5125,
      "count": 1236,
      "type": "SCALAR"
    },
    {
      "bufferView": 2,
      "byteOffset": 6552,
      "componentType": 5126,
      "count": 649,
      "max": [
        0.7140480279922485,
        0.656453013420105,
        4.35931396484375
      ],
      "min": [
        -0.6908220052719116,
        -0.6579939723014832,
        0.34978801012039185
      ],
      "type": "VEC3"
    },
    {
      "bufferView": 2,
      "byteOffset": 14340,
      "componentType": 5126,
      "count": 649,
      "max": [
        0.9999595880508423,
        1.0,
        0.6211245656013489
      ],
      "min": [
        -0.9999595880508423,
        -1.0,
        -0.6211245656013489
      ],
      "type": "VEC3"
    },
    {
      "bufferView": 3,
      "byteOffset": 4368,
      "componentType": 5126,
      "count": 649,
      "max": [
        1.0,
        1.0,
        0.7740733623504639,
        1.0
      ],
      "min": [
        -1.0,
        -1.0,
        -0.7740733623504639,
        1.0
      ],
      "type": "VEC4"
    },
    {
      "bufferView": 1,
      "byteOffset": 2184,
      "componentType": 5126,
      "count": 649,
      "max": [
        0.97987300157547,
        0.9686220288276672
      ],
      "min": [
        0.012734999880194664,
        0.03159800171852112
      ],
      "type": "VEC2"
    },
    {
      "bufferView": 0,
      "byteOffset": 4944,
      "componentType": 5125,
      "count": 3120,
      "type": "SCALAR"
    }
  ],
  "asset": {
    "extras": {
      "author": "VRC-IW (https://sketchfab.com/VRC-IW)",
      "license": "CC-BY-NC-4.0 (http://creativecommons.org/licenses/by-nc/4.0/)",
      "source": "https://sketchfab.com/3d-models/jagermeister-07l-bottle-japan-bb64d4d1448b47ccb788656e5d522ec9",
      "title": "Jägermeister 0.7L bottle (Japan)"
    },
    "generator": "Sketchfab-14.65.0",
    "version": "2.0"
  },
  "bufferViews": [
    {
      "buffer": 0,
      "byteLength": 17424,
      "name": "floatBufferViews",
      "target": 34963
    },
    {
      "buffer": 0,
      "byteLength": 7376,
      "byteOffset": 17424,
      "byteStride": 8,
      "name": "floatBufferViews",
      "target": 34962
    },
    {
      "buffer": 0,
      "byteLength": 22128,
      "byteOffset": 24800,
      "byteStride": 12,
      "name": "floatBufferViews",
      "target": 34962
    },
    {
      "buffer": 0,
      "byteLength": 14752,
      "byteOffset": 46928,
      "byteStride": 16,
      "name": "floatBufferViews",
      "target": 34962
    }
  ],
  "buffers": [
    {
      "byteLength": 61680,
      "uri": "scene.bin"
    }
  ],
  "extensionsUsed": [
    "KHR_materials_transmission",
    "KHR_materials_specular"
  ],
  "images": [
    {
      "uri": "textures/bottle_normal.png"
    },
    {
      "uri": "textures/jager_label_baseColor.png"
    },
    {
      "uri": "textures/jager_label_normal.png"
    }
  ],
  "materials": [
    {
      "alphaMode": "BLEND",
      "doubleSided": true,
      "extensions": {
        "KHR_materials_specular": {
          "specularColorFactor": [
            1.0,
            1.0,
            1.0
          ],
          "specularFactor": 0.4881239017687224
        },
        "KHR_materials_transmission": {
          "transmissionFactor": 0.0020000000000000018
        }
      },
      "name": "bottle",
      "normalTexture": {
        "index": 0
      },
      "pbrMetallicRoughness": {
        "baseColorFactor": [
          0.0051795,
          0.0071936,
          0.00253964,
          0.998
        ],
        "metallicFactor": 0.713090308811995,
        "roughnessFactor": 0.0
      }
    },
    {
      "doubleSided": true,
      "name": "jager_label",
      "normalTexture": {
        "index": 2
      },
      "pbrMetallicRoughness": {
        "baseColorTexture": {
          "index": 1
        },
        "metallicFactor": 0.0,
        "roughnessFactor": 0.4190488961490168
      }
    }
  ],
  "meshes": [
    {
      "name": "Object_0",
      "primitives": [
        {
          "attributes": {
            "NORMAL": 1,
            "POSITION": 0,
            "TANGENT": 2,
            "TEXCOORD_0": 3
          },
          "indices": 4,
          "material": 0,
          "mode": 4
        }
      ]
    },
    {
      "name": "Object_1",
      "primitives": [
        {
          "attributes": {
            "NORMAL": 6,
            "POSITION": 5,
            "TANGENT": 7,
            "TEXCOORD_0": 8
          },
          "indices": 9,
          "material": 1,
          "mode": 4
        }
      ]
    }
  ],
  "nodes": [
    {
      "children": [
        1
      ],
      "matrix": [
        1.0,
        0.0,
        0.0,
        0.0,
        0.0,
        2.220446049250313e-16,
        -1.0,
        0.0,
        0.0,
        1.0,
        2.220446049250313e-16,
        0.0,
        0.0,
        0.0,
        0.0,
        1.0
      ],
      "name": "Sketchfab_model"
    },
    {
      "children": [
        2,
        3
      ],
      "name": "f234696f96e940788d2d0a2e3bcb19dc.obj.cleaner.materialmerger.gles"
    },
    {
      "mesh": 0,
      "name": "Object_2"
    },
    {
      "mesh": 1,
      "name": "Object_3"
    }
  ],
  "samplers": [
    {
      "magFilter": 9729,
      "minFilter": 9987,
      "wrapS": 10497,
      "wrapT": 10497
    }
  ],
  "scene": 0,
  "scenes": [
    {
      "name": "Sketchfab_Scene",
      "nodes": [
        0
      ]
    }
  ],
  "textures": [
    {
      "sampler": 0,
      "source": 0
    },
    {
      "sampler": 0,
      "source": 1
    },
    {
      "sampler": 0,
      "source": 2
    }
  ]
}
